<mxfile host="65bd71144e">
    <diagram id="IkHD-cVuYkzQIx5YuAxt" name="Page-1">
        <mxGraphModel dx="796" dy="452" grid="1" gridSize="10" guides="1" tooltips="1" connect="1" arrows="1" fold="1" page="1" pageScale="1" pageWidth="850" pageHeight="1100" math="0" shadow="0">
            <root>
                <mxCell id="0"/>
                <mxCell id="1" parent="0"/>
                <mxCell id="2" value="CallForPaper Management" style="shape=folder;fontStyle=1;tabWidth=110;tabHeight=50;tabPosition=left;html=1;boundedLbl=1;labelInHeader=1;container=1;collapsible=0;align=left;" vertex="1" parent="1">
                    <mxGeometry x="260" y="410" width="220" height="130" as="geometry"/>
                </mxCell>
                <mxCell id="3" value="Text" style="html=1;strokeColor=none;resizeWidth=1;resizeHeight=1;fillColor=none;part=1;connectable=0;allowArrows=0;deletable=0;" vertex="1" parent="2">
                    <mxGeometry width="220" height="91" relative="1" as="geometry">
                        <mxPoint y="30" as="offset"/>
                    </mxGeometry>
                </mxCell>
            </root>
        </mxGraphModel>
    </diagram>
</mxfile>